<svg xmlns="http://www.w3.org/2000/svg" viewBox="0 0 48 48">
  <rect width="48" height="48" rx="10" fill="#FBF6EE"/>
  <rect x="21.5" y="23" width="5" height="20" rx="2.5" fill="#6b4a2b"/>
  <rect x="19.5" y="19" width="9" height="6" rx="1.5" fill="#c9a24b"/>
  <path d="M24 5c2.6 3 3.4 6.4 2.2 9.8C25.4 17 24.6 18 24 20c-.6-2-1.4-3-2.2-5.2C20.6 11.4 21.4 8 24 5z" fill="#C1362F"/>
  <path d="M15.5 10.5c3.6 1.3 5.7 3.9 6.3 7.2.2 1.4 0 2.4.2 4-1.7-1.1-2.8-1.4-4.6-2.7-2.7-2-3.6-5.3-1.9-8.5z" fill="#C1362F" opacity=".9"/>
  <path d="M32.5 10.5c-3.6 1.3-5.7 3.9-6.3 7.2-.2 1.4 0 2.4-.2 4 1.7-1.1 2.8-1.4 4.6-2.7 2.7-2 3.6-5.3 1.9-8.5z" fill="#C1362F" opacity=".9"/>
  <path d="M24 11c1.4 2.2 1.6 4.4.7 6.6-.5 1.2-1 1.8-1.4 3.1-.4-1.3-.9-1.9-1.4-3.1-.9-2.2-.7-4.4.7-6.6z" fill="#E4784B"/>
</svg>
